{"title":"Lose at poker  gotta get fucked Eva Angelina.flv","uid":9016046,"size":86925959,"categoryP":"porn","categoryS":"movie_clips","magnet":"?xt=urn:btih:8c3430747cd0e69f4bd9e16b746d4d46f0da8f06&amp;dn=Lose+at+poker++gotta+get+fucked+Eva+Angelina.flv&amp;tr=udp%3A%2F%2Ftracker.openbittorrent.com%3A80&amp;tr=udp%3A%2F%2Fopen.demonii.com%3A1337&amp;tr=udp%3A%2F%2Ftracker.coppersurfer.tk%3A6969&amp;tr=udp%3A%2F%2Fexodus.desync.com%3A6969","seeders":0,"leechers":0,"uploader":null,"files":1,"time":1381194913,"description":" &lt;a href=&quot;http://www.hostpornpics.net/pornmg/share.php?id=148A_52533F6D&quot; rel=&quot;nofollow&quot; target=&quot;_NEW&quot;&gt;http://www.hostpornpics.net/pornmg/share.php?id=148A_52533F6D&lt;/a&gt;\n\n\n\nLose at poker gotta get fucked hard Eva Angelina\n\nFormat : Flash Video\nFile size : 82.9 MiB\nDuration : 24mn 39s\nOverall bit rate : 470 Kbps\n\n\nVideo\nFormat : VP6\nCodec ID : 4\nDuration : 24mn 39s\nBit rate : 404 Kbps\nWidth : 640 pixels\nHeight : 480 pixels\nDisplay aspect ratio : 4:3\nFrame rate mode : Constant\nFrame rate : 29.970 fps\nBit depth : 8 bits\nBits/(Pixel*Frame) : 0.044\nStream size : 73.4 MiB (89%)\n\nAudio\nFormat : MPEG Audio\nFormat version : Version 2\nFormat profile : Layer 3\nCodec ID : 2\nCodec ID/Hint : MP3\nDuration : 24mn 39s\nBit rate mode : Constant\nBit rate : 48.0 Kbps\nChannel(s) : 1 channel\nSampling rate : 22.05 KHz\nCompression mode : Lossy\nStream size : 9.07 MiB (11%) ","torrent":{"xt":"urn:btih:8c3430747cd0e69f4bd9e16b746d4d46f0da8f06","amp;dn":"Lose+at+poker++gotta+get+fucked+Eva+Angelina.flv","amp;tr":["udp%3A%2F%2Ftracker.openbittorrent.com%3A80","udp%3A%2F%2Fopen.demonii.com%3A1337","udp%3A%2F%2Ftracker.coppersurfer.tk%3A6969","udp%3A%2F%2Fexodus.desync.com%3A6969"],"infoHash":"8c3430747cd0e69f4bd9e16b746d4d46f0da8f06","infoHashBuffer":{"type":"Buffer","data":[140,52,48,116,124,208,230,159,75,217,225,107,116,109,77,70,240,218,143,6]},"announce":[],"urlList":[]}}